<svg xmlns="http://www.w3.org/2000/svg" xmlns:xlink="http://www.w3.org/1999/xlink" width="48" zoomAndPan="magnify" viewBox="0 0 36 36.000001" height="48" preserveAspectRatio="xMidYMid meet" version="1.0"><defs><clipPath id="cc70f6f57e"><path d="M 13 6.261719 L 23 6.261719 L 23 28.882812 L 13 28.882812 Z M 13 6.261719 " clip-rule="nonzero"/></clipPath></defs><path fill="#aceeff" d="M 10.074219 25.589844 C 9.601562 25.589844 9.285156 25.429688 8.964844 25.113281 L 2.628906 18.777344 C 1.996094 18.144531 1.996094 17.191406 2.628906 16.558594 L 8.964844 10.222656 C 9.601562 9.589844 10.550781 9.589844 11.183594 10.222656 C 11.816406 10.855469 11.816406 11.804688 11.183594 12.441406 L 5.957031 17.667969 L 11.183594 22.894531 C 11.816406 23.53125 11.816406 24.480469 11.183594 25.113281 C 10.867188 25.429688 10.550781 25.589844 10.074219 25.589844 Z M 10.074219 25.589844 " fill-opacity="1" fill-rule="nonzero"/><path fill="#aceeff" d="M 25.917969 25.589844 C 25.441406 25.589844 25.125 25.429688 24.808594 25.113281 C 24.175781 24.480469 24.175781 23.53125 24.808594 22.894531 L 30.035156 17.667969 L 24.808594 12.441406 C 24.175781 11.804688 24.175781 10.855469 24.808594 10.222656 C 25.441406 9.589844 26.394531 9.589844 27.027344 10.222656 L 33.363281 16.558594 C 33.996094 17.191406 33.996094 18.144531 33.363281 18.777344 L 27.027344 25.113281 C 26.710938 25.429688 26.394531 25.589844 25.917969 25.589844 Z M 25.917969 25.589844 " fill-opacity="1" fill-rule="nonzero"/><g clip-path="url(#cc70f6f57e)"><path fill="#aceeff" d="M 14.828125 28.757812 C 14.667969 28.757812 14.511719 28.757812 14.351562 28.597656 C 13.5625 28.28125 13.085938 27.488281 13.402344 26.539062 L 19.738281 7.527344 C 20.054688 6.738281 20.847656 6.261719 21.796875 6.578125 C 22.589844 6.894531 23.066406 7.6875 22.75 8.636719 L 16.414062 27.648438 C 16.09375 28.28125 15.460938 28.757812 14.828125 28.757812 Z M 14.828125 28.757812 " fill-opacity="1" fill-rule="nonzero"/></g></svg>